<svg xmlns="http://www.w3.org/2000/svg" xmlns:xlink="http://www.w3.org/1999/xlink" width="500" zoomAndPan="magnify" viewBox="0 0 375 374.999991" height="500" preserveAspectRatio="xMidYMid meet" version="1.0"><defs><clipPath id="8ef87d4e16"><path d="M 26.71875 26 L 200 26 L 200 326 L 26.71875 326 Z M 26.71875 26 " clip-rule="nonzero"/></clipPath><clipPath id="2b529d1365"><path d="M 175 49 L 348.46875 49 L 348.46875 349 L 175 349 Z M 175 49 " clip-rule="nonzero"/></clipPath></defs><g clip-path="url(#8ef87d4e16)"><path fill="#000000" d="M 53.585938 187.5 C 53.585938 116.371094 109.414062 58.179688 179.554688 53.960938 L 199.882812 27.414062 C 195.808594 27.09375 191.746094 26.785156 187.59375 26.785156 C 98.789062 26.785156 26.785156 98.746094 26.785156 187.5 C 26.785156 246.308594 58.476562 297.574219 105.636719 325.582031 L 112.617188 298.433594 C 77.023438 274.339844 53.585938 233.585938 53.585938 187.5 Z M 53.585938 187.5 " fill-opacity="1" fill-rule="nonzero"/></g><g clip-path="url(#2b529d1365)"><path fill="#000000" d="M 268.988281 49.070312 L 261.632812 75.964844 C 297.746094 100.003906 321.601562 140.988281 321.601562 187.5 C 321.601562 258.617188 265.773438 316.820312 195.632812 321.011719 L 175.292969 347.585938 C 179.378906 347.90625 183.441406 348.214844 187.59375 348.214844 C 276.398438 348.214844 348.402344 276.253906 348.402344 187.5 C 348.402344 128.464844 316.453125 77.007812 268.988281 49.070312 Z M 268.988281 49.070312 " fill-opacity="1" fill-rule="nonzero"/></g><path fill="#000000" d="M 294.800781 147.320312 L 214.394531 147.320312 L 222.273438 118.417969 L 237.335938 63.253906 L 244.414062 37.300781 L 254.597656 0 L 229.699219 32.542969 L 211.847656 55.875 L 167.25 114.148438 L 80.386719 227.679688 L 160.792969 227.679688 L 152.953125 256.40625 L 137.851562 311.746094 L 130.773438 337.699219 L 120.589844 375 L 145.488281 342.457031 L 163.339844 319.125 L 208.5 260.089844 Z M 294.800781 147.320312 " fill-opacity="1" fill-rule="nonzero"/></svg>