<svg xmlns="http://www.w3.org/2000/svg" xmlns:xlink="http://www.w3.org/1999/xlink" width="500" zoomAndPan="magnify" viewBox="0 0 375 374.999991" height="500" preserveAspectRatio="xMidYMid meet" version="1.0"><defs><clipPath id="fbb3ca7729"><path d="M 32.578125 0 L 342.328125 0 L 342.328125 375 L 32.578125 375 Z M 32.578125 0 " clip-rule="nonzero"/></clipPath></defs><g clip-path="url(#fbb3ca7729)"><path fill="#000000" d="M 342.308594 106.90625 L 342.308594 295.753906 C 342.308594 302.597656 336.761719 308.148438 329.921875 308.148438 L 168.519531 308.148438 C 166.9375 308.148438 166.132812 306.246094 167.234375 305.113281 L 251.664062 217.835938 C 256.46875 212.863281 253.457031 204.546875 246.574219 203.796875 L 211.347656 200.007812 C 204.730469 199.296875 201.234375 191.796875 204.945312 186.265625 L 251.539062 110.996094 C 255.4375 104.710938 249.796875 96.859375 242.59375 98.535156 L 151.777344 119.699219 C 149.351562 120.261719 147.289062 121.894531 146.203125 124.144531 C 138.453125 140.082031 107.078125 198.105469 94.464844 221.355469 C 91.828125 226.21875 94.613281 232.261719 100.023438 233.421875 L 147.019531 243.578125 C 152.242188 244.703125 155.054688 250.394531 152.777344 255.226562 L 127.808594 308.148438 L 97.152344 373.125 C 96.308594 374.917969 93.605469 374.210938 93.746094 372.234375 L 98.136719 310.066406 C 98.207031 309.027344 97.386719 308.148438 96.347656 308.148438 L 44.957031 308.148438 C 38.113281 308.148438 32.566406 302.597656 32.566406 295.753906 L 32.566406 106.90625 C 32.566406 102.738281 34.664062 98.84375 38.148438 96.550781 L 180.621094 2.792969 C 184.753906 0.0742188 190.109375 0.0742188 194.238281 2.792969 L 336.726562 96.550781 C 340.210938 98.84375 342.308594 102.738281 342.308594 106.90625 " fill-opacity="1" fill-rule="nonzero"/></g></svg>