<svg xmlns="http://www.w3.org/2000/svg" xmlns:xlink="http://www.w3.org/1999/xlink" width="500" zoomAndPan="magnify" viewBox="0 0 375 374.999991" height="500" preserveAspectRatio="xMidYMid meet" version="1.0"><defs><clipPath id="c88407b406"><path d="M 0 126.328125 L 261 126.328125 L 261 342.589844 L 0 342.589844 Z M 0 126.328125 " clip-rule="nonzero"/></clipPath><clipPath id="898b2938da"><path d="M 114 32.125 L 375 32.125 L 375 248.390625 L 114 248.390625 Z M 114 32.125 " clip-rule="nonzero"/></clipPath></defs><path fill="#2e2a2b" d="M 291.722656 289.726562 C 290.316406 289.726562 288.984375 290.265625 287.976562 291.238281 C 286.679688 292.492188 285.339844 293.738281 283.996094 294.941406 C 282.925781 295.902344 282.292969 297.222656 282.210938 298.660156 C 282.132812 300.09375 282.621094 301.476562 283.582031 302.546875 C 284.601562 303.6875 286.066406 304.339844 287.597656 304.339844 C 288.925781 304.339844 290.203125 303.851562 291.195312 302.964844 C 292.636719 301.675781 294.070312 300.335938 295.472656 298.984375 C 297.605469 296.921875 297.664062 293.503906 295.601562 291.371094 C 294.574219 290.308594 293.199219 289.726562 291.722656 289.726562 " fill-opacity="1" fill-rule="nonzero"/><path fill="#2e2a2b" d="M 83.28125 84.988281 C 84.6875 84.988281 86.015625 84.453125 87.027344 83.472656 C 88.320312 82.226562 89.65625 80.984375 91.007812 79.773438 C 92.078125 78.8125 92.710938 77.492188 92.789062 76.054688 C 92.871094 74.621094 92.382812 73.238281 91.421875 72.167969 C 90.402344 71.027344 88.9375 70.375 87.40625 70.375 C 86.074219 70.375 84.800781 70.867188 83.808594 71.753906 C 82.363281 73.046875 80.925781 74.382812 79.53125 75.730469 C 78.496094 76.730469 77.914062 78.070312 77.890625 79.511719 C 77.863281 80.949219 78.402344 82.3125 79.402344 83.347656 C 80.429688 84.40625 81.804688 84.988281 83.28125 84.988281 " fill-opacity="1" fill-rule="nonzero"/><g clip-path="url(#c88407b406)"><path fill="#2e2a2b" d="M 255.53125 315.546875 C 254.675781 315.546875 253.855469 315.746094 253.085938 316.136719 C 232.660156 326.539062 210.59375 331.816406 187.5 331.816406 C 168.566406 331.816406 150.144531 328.199219 132.746094 321.058594 C 115.945312 314.167969 100.742188 304.273438 87.554688 291.65625 C 74.394531 279.0625 63.855469 264.339844 56.230469 247.898438 C 48.359375 230.929688 43.933594 212.824219 43.070312 194.082031 L 43.007812 192.742188 L 69.648438 192.742188 C 71.570312 192.742188 73.359375 191.714844 74.316406 190.050781 C 75.277344 188.390625 75.277344 186.324219 74.316406 184.664062 L 42.1875 129.066406 C 41.230469 127.402344 39.4375 126.371094 37.519531 126.371094 C 35.601562 126.371094 33.808594 127.402344 32.851562 129.066406 L 0.722656 184.664062 C -0.765625 187.238281 0.121094 190.539062 2.695312 192.023438 C 3.515625 192.496094 4.445312 192.746094 5.382812 192.746094 C 7.308594 192.746094 9.097656 191.714844 10.058594 190.050781 L 37.519531 142.53125 L 60.3125 181.972656 L 37.519531 181.972656 C 34.742188 181.972656 32.4375 184.050781 32.15625 186.804688 C 32.136719 186.988281 32.128906 187.171875 32.128906 187.359375 C 32.128906 208.3125 36.238281 228.640625 44.339844 247.78125 C 52.167969 266.269531 63.367188 282.867188 77.636719 297.125 C 91.902344 311.378906 108.519531 322.570312 127.023438 330.386719 C 146.179688 338.484375 166.527344 342.589844 187.5 342.589844 C 199.949219 342.589844 212.332031 341.113281 224.320312 338.203125 C 235.964844 335.375 247.292969 331.179688 257.984375 325.734375 C 259.269531 325.082031 260.21875 323.964844 260.664062 322.597656 C 261.109375 321.230469 260.996094 319.769531 260.339844 318.488281 C 259.414062 316.671875 257.570312 315.546875 255.53125 315.546875 " fill-opacity="1" fill-rule="nonzero"/></g><g clip-path="url(#898b2938da)"><path fill="#2e2a2b" d="M 374.820312 185.964844 C 374.449219 184.574219 373.554688 183.410156 372.308594 182.691406 C 371.492188 182.21875 370.558594 181.96875 369.621094 181.96875 C 367.695312 181.96875 365.902344 183.003906 364.945312 184.664062 L 337.480469 232.183594 L 314.691406 192.742188 L 337.480469 192.742188 C 340.261719 192.742188 342.566406 190.664062 342.847656 187.910156 C 342.867188 187.726562 342.875 187.542969 342.875 187.359375 C 342.875 166.402344 338.765625 146.074219 330.660156 126.933594 C 322.835938 108.445312 311.636719 91.84375 297.367188 77.59375 C 283.101562 63.335938 266.484375 52.144531 247.980469 44.324219 C 228.824219 36.230469 208.472656 32.125 187.503906 32.125 C 175.054688 32.125 162.667969 33.601562 150.683594 36.511719 C 139.035156 39.335938 127.710938 43.535156 117.015625 48.980469 C 114.367188 50.332031 113.3125 53.582031 114.664062 56.226562 C 115.589844 58.039062 117.429688 59.167969 119.472656 59.167969 C 120.324219 59.167969 121.148438 58.96875 121.914062 58.578125 C 142.339844 48.171875 164.40625 42.898438 187.503906 42.898438 C 206.4375 42.898438 224.859375 46.519531 242.257812 53.65625 C 259.058594 60.546875 274.261719 70.441406 287.445312 83.0625 C 300.605469 95.652344 311.144531 110.375 318.769531 126.816406 C 326.640625 143.785156 331.070312 161.890625 331.933594 180.632812 L 331.996094 181.96875 L 305.355469 181.96875 C 303.433594 181.96875 301.644531 183.003906 300.683594 184.664062 C 299.726562 186.324219 299.726562 188.390625 300.683594 190.050781 L 332.816406 245.648438 C 333.777344 247.3125 335.5625 248.34375 337.480469 248.34375 C 339.402344 248.34375 341.191406 247.3125 342.152344 245.652344 L 374.28125 190.050781 C 375.003906 188.804688 375.195312 187.355469 374.820312 185.964844 " fill-opacity="1" fill-rule="nonzero"/></g><path fill="#2e2a2b" d="M 226.570312 179.347656 L 192.890625 263.375 L 192.890625 200.75 C 192.890625 197.777344 190.476562 195.367188 187.5 195.367188 L 148.429688 195.367188 L 182.113281 111.339844 L 182.113281 173.964844 C 182.113281 176.9375 184.527344 179.347656 187.5 179.347656 Z M 188.523438 78.132812 C 185.988281 77.644531 183.460938 79.023438 182.5 81.417969 L 135.46875 198.75 C 134.800781 200.40625 135.003906 202.285156 136.007812 203.765625 C 137.007812 205.246094 138.683594 206.132812 140.46875 206.132812 L 182.113281 206.132812 L 182.113281 291.296875 C 182.113281 293.875 183.945312 296.089844 186.480469 296.582031 C 186.824219 296.644531 187.167969 296.679688 187.503906 296.679688 C 189.671875 296.679688 191.671875 295.367188 192.503906 293.296875 L 239.535156 175.964844 C 240.203125 174.308594 240 172.425781 238.996094 170.949219 C 237.992188 169.46875 236.320312 168.582031 234.535156 168.582031 L 192.890625 168.582031 L 192.890625 83.417969 C 192.890625 80.839844 191.058594 78.621094 188.523438 78.132812 " fill-opacity="1" fill-rule="nonzero"/></svg>