<svg xmlns="http://www.w3.org/2000/svg" xmlns:xlink="http://www.w3.org/1999/xlink" width="500" zoomAndPan="magnify" viewBox="0 0 375 374.999991" height="500" preserveAspectRatio="xMidYMid meet" version="1.0"><path fill="#000000" d="M 248.574219 325.316406 L 248.574219 327.867188 C 248.574219 336.230469 241.792969 343.007812 233.429688 343.007812 L 218.289062 343.007812 L 218.289062 347.046875 C 218.289062 362.488281 205.773438 375.003906 190.332031 375.003906 L 185.625 375.003906 C 170.183594 375.003906 157.664062 362.488281 157.664062 347.046875 L 157.664062 343.007812 L 142.46875 343.007812 C 134.101562 343.007812 127.324219 336.230469 127.324219 327.867188 L 127.324219 325.316406 C 127.324219 316.953125 134.101562 310.171875 142.46875 310.171875 L 233.429688 310.171875 C 241.792969 310.171875 248.574219 316.949219 248.574219 325.316406 Z M 173.867188 8.191406 C 122.898438 13.945312 73.863281 62.730469 67.851562 113.664062 C 65.851562 130.621094 67.542969 146.894531 71.941406 162.015625 L 72.117188 161.90625 C 79.816406 174.738281 89.476562 181.308594 100.839844 181.464844 L 101.253906 181.464844 C 108.480469 181.464844 116.390625 178.933594 124.761719 174.207031 C 115.699219 158.171875 116.027344 141.027344 129.136719 122.816406 C 146.4375 98.792969 209.8125 70.769531 225.769531 63.980469 C 228.035156 63.015625 230.574219 63.585938 232.203125 65.433594 C 243.789062 78.59375 271.589844 141.46875 240.628906 187.96875 C 226.847656 208.667969 193.472656 223.003906 168.289062 220.191406 C 163.222656 219.625 161.226562 213.246094 164.96875 209.78125 C 196.1875 180.84375 208.796875 149.585938 212.679688 127.667969 C 213.539062 122.828125 207.257812 120.199219 204.503906 124.273438 C 202.933594 126.601562 201.160156 129.097656 199.25 131.699219 C 165.265625 179.578125 131.640625 204.757812 101.253906 204.757812 L 100.53125 204.757812 C 98.300781 204.730469 96.121094 204.527344 93.972656 204.234375 C 96.246094 207.03125 98.566406 209.796875 101.078125 212.386719 C 115.082031 226.824219 122.816406 246.1875 122.816406 266.296875 L 122.816406 266.304688 C 122.816406 276.585938 131.148438 284.914062 141.425781 284.914062 L 234.476562 284.914062 C 244.753906 284.914062 253.085938 276.582031 253.085938 266.304688 C 253.085938 246.402344 260.472656 227.039062 274.402344 212.820312 C 295.738281 191.035156 308.914062 161.253906 308.914062 128.347656 C 308.914062 56.910156 246.976562 -0.0585938 173.867188 8.191406 Z M 173.867188 8.191406 " fill-opacity="1" fill-rule="nonzero"/></svg>