<svg xmlns="http://www.w3.org/2000/svg" xmlns:xlink="http://www.w3.org/1999/xlink" width="1920" zoomAndPan="magnify" viewBox="0 0 1440 809.999993" height="1080" preserveAspectRatio="xMidYMid meet" version="1.0"><path fill="#000000" d="M 1176.238281 84.570312 L 582.863281 677.800781 C 574.699219 685.960938 561.464844 685.960938 553.300781 677.800781 C 545.140625 669.640625 545.140625 656.40625 553.300781 648.25 L 1146.679688 55.019531 C 1154.839844 46.859375 1168.078125 46.859375 1176.238281 55.019531 C 1184.398438 63.179688 1184.398438 76.410156 1176.238281 84.570312 Z M 1176.238281 84.570312 " fill-opacity="1" fill-rule="evenodd"/><path fill="#000000" d="M 423.875 285.054688 C 504.433594 188.859375 618.675781 128.902344 743.785156 118.25 C 836.832031 110.328125 928.5625 130.308594 1008.746094 174.59375 L 962.390625 220.9375 C 896.859375 188.578125 823.410156 174.378906 748.972656 180.71875 C 640.433594 189.957031 541.394531 241.957031 471.503906 325.40625 C 460.453125 338.597656 440.617188 340.273438 427.527344 329.09375 C 414.492188 317.957031 412.871094 298.191406 423.875 285.054688 Z M 1066.699219 212.414062 C 1073.539062 217.628906 1080.261719 223.039062 1086.851562 228.652344 C 1096.027344 236.472656 1104.898438 244.65625 1113.449219 253.160156 C 1122.015625 261.679688 1130.292969 270.5 1138.183594 279.648438 C 1149.390625 292.644531 1148.039062 312.457031 1135.144531 323.785156 C 1122.199219 335.15625 1102.328125 333.761719 1091.082031 320.71875 C 1084.238281 312.785156 1077.121094 305.078125 1069.691406 297.691406 C 1062.257812 290.296875 1054.53125 283.199219 1046.550781 276.398438 C 1038.589844 269.617188 1030.414062 263.171875 1022.039062 257.066406 Z M 1066.699219 212.414062 " fill-opacity="1" fill-rule="evenodd"/><path fill="#000000" d="M 538.125 370.507812 C 593.484375 304.40625 672 263.199219 757.972656 255.878906 C 808.824219 251.550781 859.105469 259.351562 905.273438 278.035156 L 856.046875 327.253906 C 826.234375 318.769531 794.839844 315.648438 763.160156 318.347656 C 693.757812 324.257812 630.445312 357.5 585.753906 410.859375 C 574.707031 424.050781 554.867188 425.726562 541.777344 414.546875 C 528.742188 403.414062 527.125 383.644531 538.125 370.507812 Z M 967.488281 311.601562 C 976.519531 317.839844 985.28125 324.5625 993.730469 331.765625 C 1000.035156 337.136719 1006.125 342.761719 1012 348.601562 C 1017.886719 354.453125 1023.585938 360.507812 1029.007812 366.796875 C 1040.214844 379.789062 1038.863281 399.605469 1025.96875 410.929688 C 1013.023438 422.304688 993.15625 420.90625 981.90625 407.863281 C 977.53125 402.792969 972.992188 397.855469 968.242188 393.132812 C 963.484375 388.402344 958.539062 383.863281 953.429688 379.507812 C 943.5625 371.101562 933.171875 363.496094 922.347656 356.726562 Z M 967.488281 311.601562 " fill-opacity="1" fill-rule="evenodd"/><path fill="#000000" d="M 639.628906 460.167969 C 671.71875 421.847656 717.25 397.953125 767.089844 393.710938 C 774.796875 393.054688 782.480469 392.882812 790.105469 393.175781 L 673.210938 510.039062 C 663.238281 513.320312 651.824219 511.503906 643.28125 504.207031 C 630.246094 493.070312 628.625 473.300781 639.628906 460.167969 Z M 866.253906 412.808594 C 879.578125 419.507812 892.179688 427.847656 903.769531 437.722656 C 907.417969 440.835938 910.941406 444.097656 914.339844 447.476562 C 917.753906 450.871094 921.074219 454.371094 924.21875 458.015625 C 935.421875 471.007812 934.070312 490.820312 921.175781 502.148438 C 908.234375 513.519531 888.363281 512.125 877.113281 499.082031 C 875.019531 496.65625 872.859375 494.269531 870.585938 492.007812 C 868.300781 489.734375 865.917969 487.558594 863.464844 485.46875 C 850.0625 474.046875 834.65625 465.734375 818.203125 460.847656 Z M 866.253906 412.808594 " fill-opacity="1" fill-rule="evenodd"/><path fill="#000000" d="M 783.589844 545.070312 C 822.089844 545.070312 853.300781 574.773438 853.300781 611.414062 C 853.300781 648.058594 822.089844 677.761719 783.589844 677.761719 C 745.085938 677.761719 713.871094 648.058594 713.871094 611.414062 C 713.871094 574.773438 745.085938 545.070312 783.589844 545.070312 Z M 783.589844 545.070312 " fill-opacity="1" fill-rule="evenodd"/></svg>