<svg xmlns="http://www.w3.org/2000/svg" xmlns:xlink="http://www.w3.org/1999/xlink" version="1.1" x="0px" y="0px" viewBox="0 0 100 125" style="enable-background:new 0 0 100 100;" xml:space="preserve"><path d="M44.9,48.7c-0.3,0-0.5,0-0.8-0.1H44C37.2,47,32.5,41,32.5,34.1c0-6.7,4.9-12.8,11.6-14.5h0.1c1.3-0.2,2.6,0.1,3.5,0.9  s1.4,1.9,1.4,3.2v20.8c0,1.3-0.5,2.4-1.4,3.2C46.9,48.4,45.9,48.7,44.9,48.7z M44.7,45.7c0.4,0.1,0.8,0,1-0.2s0.4-0.5,0.4-0.9V23.7  c0-0.4-0.1-0.7-0.4-0.9c-0.3-0.2-0.6-0.3-1-0.2c-5.3,1.4-9.2,6.2-9.2,11.5C35.5,39.7,39.2,44.3,44.7,45.7z"/><path d="M55.1,80.5c-1,0-2-0.3-2.7-1c-0.9-0.8-1.4-1.9-1.4-3.2V55.5c0-1.3,0.5-2.4,1.4-3.2s2.2-1.1,3.5-0.9H56  C62.8,53,67.5,59,67.5,65.9c0,6.7-4.9,12.8-11.6,14.5h-0.1C55.6,80.4,55.3,80.5,55.1,80.5z M55.1,54.3c-0.3,0-0.6,0.1-0.8,0.3  s-0.4,0.5-0.4,0.9v20.8c0,0.4,0.1,0.7,0.4,0.9c0.3,0.2,0.6,0.3,1,0.2c5.3-1.4,9.2-6.2,9.2-11.5c0-5.6-3.7-10.2-9.2-11.5  C55.2,54.3,55.2,54.3,55.1,54.3z"/><path d="M76.3,49.1H55.5c-1.3,0-2.4-0.5-3.2-1.4s-1.1-2.2-0.9-3.5v-0.1C53,37.2,59,32.5,65.9,32.5c6.7,0,12.8,4.9,14.5,11.6v0.1  c0.2,1.3-0.1,2.6-0.9,3.5S77.6,49.1,76.3,49.1z M54.3,44.7c-0.1,0.4,0,0.8,0.2,1s0.5,0.4,0.9,0.4h20.8c0.4,0,0.7-0.1,0.9-0.4  c0.2-0.3,0.3-0.6,0.2-1c-1.4-5.3-6.2-9.2-11.5-9.2C60.3,35.5,55.7,39.2,54.3,44.7z"/><path d="M34.1,67.5c-6.7,0-12.8-4.9-14.5-11.6v-0.1c-0.2-1.3,0.1-2.6,0.9-3.5s1.9-1.4,3.2-1.4h20.8c1.3,0,2.4,0.5,3.2,1.4  s1.1,2.2,0.9,3.5v0.1C47,62.8,41,67.5,34.1,67.5z M22.6,55.3c1.4,5.3,6.2,9.2,11.5,9.2c5.6,0,10.2-3.7,11.5-9.2c0.1-0.4,0-0.8-0.2-1  s-0.5-0.4-0.9-0.4H23.7c-0.4,0-0.7,0.1-0.9,0.4C22.6,54.6,22.5,54.9,22.6,55.3z"/><text x="0" y="115" fill="#000000" font-size="5px" font-weight="bold" font-family="'Helvetica Neue', Helvetica, Arial-Unicode, Arial, Sans-serif"></text><text x="0" y="120" fill="#000000" font-size="5px" font-weight="bold" font-family="'Helvetica Neue', Helvetica, Arial-Unicode, Arial, Sans-serif"></text></svg>