<svg xmlns="http://www.w3.org/2000/svg" xmlns:xlink="http://www.w3.org/1999/xlink" version="1.1" x="0px" y="0px" viewBox="0 0 100 125" enable-background="new 0 0 100 100" xml:space="preserve"><g><g><path d="M62.659,67.539l-2.196,2.596c9.144,1.162,15.534,3.797,15.534,6.865c0,4.144-11.64,7.503-25.997,7.503    S24.003,81.144,24.003,77c0-3.068,6.391-5.703,15.534-6.865l-2.196-2.596C27.11,69.291,20.004,73.087,20.004,77.5    c0,6.074,13.43,10.999,29.996,10.999S79.996,83.574,79.996,77.5C79.996,73.087,72.891,69.291,62.659,67.539z M75.143,37.643    C75.143,23.757,63.885,12.5,50,12.5c-13.886,0-25.143,11.257-25.143,25.143S50,79.548,50,79.548S75.143,51.529,75.143,37.643z     M50,16.69c11.57,0,20.952,9.499,20.952,21.215C70.952,49.621,50,73.262,50,73.262S29.048,49.62,29.048,37.904    C29.048,26.188,38.429,16.69,50,16.69z M60.477,35.548c0-5.786-4.69-10.477-10.477-10.477c-5.785,0-10.476,4.691-10.476,10.477    c0,5.785,4.691,10.476,10.476,10.476C55.787,46.024,60.477,41.333,60.477,35.548z M43.714,35.548c0-3.472,2.815-6.286,6.286-6.286    c3.473,0,6.286,2.814,6.286,6.286c0,3.471-2.813,6.285-6.286,6.286C46.528,41.834,43.714,39.019,43.714,35.548z"/></g></g></svg>