<svg xmlns="http://www.w3.org/2000/svg" xmlns:xlink="http://www.w3.org/1999/xlink" version="1.1" x="0px" y="0px" viewBox="0 0 2000 2500" style="enable-background:new 0 0 2000 2000;" xml:space="preserve"><g><path d="M564.9,856.4h337.9c7.8,0,14-6.3,14-14c0-7.8-6.3-14-14-14H564.9c-7.8,0-14,6.3-14,14C550.9,850.2,557.2,856.4,564.9,856.4   z"/><path d="M564.9,951.3h337.9c7.8,0,14-6.3,14-14s-6.3-14-14-14H564.9c-7.8,0-14,6.3-14,14S557.2,951.3,564.9,951.3z"/><path d="M564.9,1046.1h337.9c7.8,0,14-6.3,14-14s-6.3-14-14-14H564.9c-7.8,0-14,6.3-14,14S557.2,1046.1,564.9,1046.1z"/><path d="M564.9,1140.9h337.9c7.8,0,14-6.3,14-14s-6.3-14-14-14H564.9c-7.8,0-14,6.3-14,14S557.2,1140.9,564.9,1140.9z"/><path d="M916.9,1221.7c0-7.8-6.3-14-14-14H564.9c-7.8,0-14,6.3-14,14c0,7.8,6.3,14,14,14h337.9   C910.6,1235.8,916.9,1229.5,916.9,1221.7z"/><path d="M1598,913h-101.9c-7.8,0-14,6.3-14,14v48.6h-101.2c-3.9-14.8-15-26.3-29.5-29.8l-50.6-12V808.6c0-39.7-32.3-72.1-72.1-72.1   h-31.9H850v-60.3c67.7-7,120.7-64.5,120.7-134c0-74.3-60.5-134.8-134.8-134.8c-74.3,0-134.8,60.5-134.8,134.8   c0,69.6,53,127,120.7,134v60.3H475h-56c-47.2,0-85.6,38.4-85.6,85.6V1242c0,47.2,38.4,85.6,85.6,85.6h56h264.9v120.7H525.1   c-35.4,0-64.2,28.8-64.2,64.2v66c0,7.8,6.3,14,14,14h721.8c7.8,0,14-6.3,14-14v-66c0-35.4-28.8-64.2-64.2-64.2H931.9v-120.7h264.9   h31.9c39.7,0,72.1-32.3,72.1-72.1v-125.2l50.6-12c14.6-3.5,25.6-15,29.5-29.8h101.2v48.6c0,7.8,6.3,14,14,14H1598   c37.8,0,68.6-30.8,68.6-68.6v-101C1666.6,943.8,1635.8,913,1598,913z M729.2,542.3c0-58.8,47.9-106.7,106.7-106.7   c58.8,0,106.7,47.9,106.7,106.7c0,58.8-47.9,106.7-106.7,106.7C777.1,648.9,729.2,601.1,729.2,542.3z M361.5,1242V822.1   c0-31.7,25.8-57.5,57.5-57.5h41.9v534.8H419C387.3,1299.5,361.5,1273.7,361.5,1242z M489,764.7h693.7v534.8H917.9h-164H489V764.7z    M1182.8,1512.4v52H489v-52c0-19.9,16.2-36.1,36.1-36.1h228.8h164h228.8C1166.6,1476.4,1182.8,1492.5,1182.8,1512.4z M903.8,1448.3   H768v-120.7h135.9V1448.3z M1272.7,1255.5c0,24.2-19.7,44-44,44h-17.8V764.7h17.8c24.2,0,44,19.7,44,44V945v174.2V1255.5z    M1354.4,1076.5c0,6.9-4.1,13.1-9.5,14.4l-44.1,10.5V962.8l44.1,10.5c5.4,1.3,9.5,7.5,9.5,14.4v2.1v84.7V1076.5z M1382.5,1060.4   v-56.6h99.6v56.6H1382.5z M1638.5,1082.5c0,22.3-18.2,40.5-40.5,40.5h-87.8v-48.6v-84.7v-48.6h87.8c22.3,0,40.5,18.2,40.5,40.5   V1082.5z"/><path d="M884.9,598.2c4,0,7.9-1.7,10.7-4.9c5-5.9,4.3-14.8-1.5-19.8l-49-41.9c-5.9-5-14.8-4.3-19.8,1.5c-5,5.9-4.3,14.8,1.5,19.8   l49,41.9C878.4,597.1,881.7,598.2,884.9,598.2z"/><path d="M1049.5,1173.5c54.2,0,98.3-44.1,98.3-98.3c0-22.1-14.4-58-44-109.7c-21.1-36.9-41.8-67.5-42.7-68.7   c-2.6-3.8-7-6.2-11.6-6.2s-9,2.3-11.6,6.2c-0.9,1.3-21.6,31.9-42.7,68.7c-29.6,51.7-44,87.6-44,109.7   C951.2,1129.4,995.3,1173.5,1049.5,1173.5z M1049.5,930.1c31,48,70.2,117.9,70.2,145.1c0,38.7-31.5,70.2-70.2,70.2   c-38.7,0-70.2-31.5-70.2-70.2C979.3,1048,1018.5,978.1,1049.5,930.1z"/></g><text x="0" y="2015" fill="#000000" font-size="5px" font-weight="bold" font-family="'Helvetica Neue', Helvetica, Arial-Unicode, Arial, Sans-serif"></text><text x="0" y="2020" fill="#000000" font-size="5px" font-weight="bold" font-family="'Helvetica Neue', Helvetica, Arial-Unicode, Arial, Sans-serif"></text></svg>