<svg xmlns="http://www.w3.org/2000/svg" xmlns:xlink="http://www.w3.org/1999/xlink" width="500" zoomAndPan="magnify" viewBox="0 0 375 374.999991" height="500" preserveAspectRatio="xMidYMid meet" version="1.0"><defs><clipPath id="521d7f3566"><path d="M 1 41.71875 L 374 41.71875 L 374 333.46875 L 1 333.46875 Z M 1 41.71875 " clip-rule="nonzero"/></clipPath></defs><g clip-path="url(#521d7f3566)"><path fill="#000000" d="M 355.222656 147.546875 C 352.804688 147.550781 350.476562 147.089844 348.246094 146.164062 C 346.011719 145.238281 344.039062 143.917969 342.332031 142.207031 C 257.042969 56.851562 118.253906 56.851562 32.964844 142.207031 C 32.539062 142.625 32.097656 143.019531 31.636719 143.394531 C 31.175781 143.769531 30.695312 144.121094 30.199219 144.449219 C 29.703125 144.777344 29.191406 145.082031 28.664062 145.359375 C 28.140625 145.636719 27.601562 145.886719 27.050781 146.113281 C 26.5 146.339844 25.941406 146.535156 25.371094 146.707031 C 24.800781 146.878906 24.222656 147.019531 23.640625 147.132812 C 23.054688 147.246094 22.46875 147.332031 21.875 147.390625 C 21.285156 147.445312 20.691406 147.472656 20.097656 147.46875 C 19.5 147.46875 18.90625 147.4375 18.316406 147.378906 C 17.722656 147.316406 17.136719 147.230469 16.554688 147.113281 C 15.972656 146.996094 15.394531 146.847656 14.824219 146.675781 C 14.257812 146.5 13.699219 146.300781 13.148438 146.070312 C 12.601562 145.84375 12.0625 145.585938 11.539062 145.304688 C 11.015625 145.027344 10.503906 144.71875 10.011719 144.386719 C 9.515625 144.058594 9.039062 143.703125 8.582031 143.324219 C 8.121094 142.949219 7.679688 142.546875 7.261719 142.128906 C 6.839844 141.707031 6.441406 141.265625 6.0625 140.804688 C 5.6875 140.347656 5.332031 139.867188 5 139.375 C 4.671875 138.878906 4.363281 138.371094 4.082031 137.847656 C 3.800781 137.320312 3.546875 136.785156 3.320312 136.234375 C 3.089844 135.683594 2.890625 135.125 2.714844 134.558594 C 2.542969 133.988281 2.398438 133.410156 2.277344 132.828125 C 2.160156 132.246094 2.074219 131.65625 2.011719 131.066406 C 1.953125 130.472656 1.921875 129.878906 1.921875 129.285156 C 1.917969 128.6875 1.945312 128.09375 2.003906 127.503906 C 2.058594 126.910156 2.144531 126.320312 2.257812 125.738281 C 2.371094 125.152344 2.511719 124.574219 2.683594 124.007812 C 2.855469 123.4375 3.050781 122.875 3.277344 122.324219 C 3.5 121.773438 3.753906 121.234375 4.03125 120.707031 C 4.308594 120.183594 4.609375 119.671875 4.9375 119.175781 C 5.265625 118.675781 5.617188 118.199219 5.992188 117.734375 C 6.367188 117.273438 6.761719 116.832031 7.179688 116.40625 C 55.355469 68.246094 119.40625 41.71875 187.648438 41.71875 C 255.890625 41.71875 319.976562 68.246094 368.117188 116.40625 C 368.75 117.042969 369.332031 117.71875 369.867188 118.441406 C 370.402344 119.160156 370.878906 119.917969 371.300781 120.707031 C 371.722656 121.5 372.085938 122.316406 372.386719 123.160156 C 372.6875 124.007812 372.925781 124.867188 373.101562 125.75 C 373.277344 126.628906 373.386719 127.515625 373.429688 128.410156 C 373.472656 129.308594 373.453125 130.203125 373.363281 131.09375 C 373.273438 131.988281 373.121094 132.867188 372.90625 133.738281 C 372.6875 134.609375 372.40625 135.457031 372.0625 136.285156 C 371.71875 137.117188 371.316406 137.914062 370.855469 138.683594 C 370.394531 139.453125 369.878906 140.183594 369.3125 140.878906 C 368.742188 141.570312 368.125 142.21875 367.460938 142.820312 C 366.796875 143.421875 366.09375 143.972656 365.347656 144.472656 C 364.601562 144.96875 363.824219 145.410156 363.015625 145.792969 C 362.203125 146.179688 361.371094 146.5 360.511719 146.761719 C 359.65625 147.019531 358.78125 147.21875 357.894531 147.347656 C 357.007812 147.480469 356.117188 147.546875 355.222656 147.546875 Z M 316.574219 193.796875 C 316.996094 193.375 317.398438 192.929688 317.773438 192.46875 C 318.152344 192.007812 318.507812 191.527344 318.839844 191.03125 C 319.171875 190.535156 319.480469 190.023438 319.761719 189.496094 C 320.042969 188.96875 320.296875 188.429688 320.527344 187.878906 C 320.753906 187.324219 320.953125 186.765625 321.128906 186.191406 C 321.300781 185.621094 321.445312 185.042969 321.5625 184.457031 C 321.679688 183.871094 321.765625 183.28125 321.824219 182.683594 C 321.882812 182.089844 321.914062 181.496094 321.914062 180.898438 C 321.914062 180.300781 321.882812 179.703125 321.824219 179.109375 C 321.765625 178.515625 321.679688 177.925781 321.5625 177.339844 C 321.445312 176.75 321.300781 176.171875 321.128906 175.601562 C 320.953125 175.03125 320.753906 174.46875 320.527344 173.914062 C 320.296875 173.363281 320.042969 172.824219 319.761719 172.296875 C 319.480469 171.769531 319.171875 171.257812 318.839844 170.761719 C 318.507812 170.265625 318.152344 169.785156 317.773438 169.324219 C 317.398438 168.863281 316.996094 168.421875 316.574219 167.996094 C 245.492188 96.878906 129.847656 96.878906 58.769531 167.996094 C 58.351562 168.421875 57.953125 168.863281 57.578125 169.324219 C 57.203125 169.789062 56.851562 170.265625 56.527344 170.765625 C 56.199219 171.261719 55.894531 171.773438 55.617188 172.296875 C 55.339844 172.824219 55.089844 173.363281 54.863281 173.914062 C 54.636719 174.464844 54.441406 175.027344 54.269531 175.597656 C 54.101562 176.164062 53.957031 176.742188 53.84375 177.328125 C 53.730469 177.910156 53.644531 178.5 53.589844 179.09375 C 53.53125 179.683594 53.503906 180.277344 53.507812 180.875 C 53.507812 181.46875 53.539062 182.0625 53.601562 182.65625 C 53.660156 183.246094 53.75 183.835938 53.867188 184.417969 C 53.984375 185 54.128906 185.578125 54.300781 186.148438 C 54.476562 186.714844 54.675781 187.273438 54.90625 187.824219 C 55.132812 188.375 55.390625 188.910156 55.671875 189.4375 C 55.949219 189.960938 56.257812 190.46875 56.585938 190.964844 C 56.917969 191.457031 57.273438 191.9375 57.648438 192.394531 C 58.027344 192.855469 58.425781 193.296875 58.847656 193.71875 C 59.269531 194.136719 59.707031 194.539062 60.167969 194.914062 C 60.625 195.292969 61.105469 195.648438 61.597656 195.976562 C 62.09375 196.308594 62.601562 196.613281 63.125 196.894531 C 63.648438 197.175781 64.1875 197.433594 64.734375 197.660156 C 65.285156 197.890625 65.84375 198.089844 66.414062 198.265625 C 66.980469 198.4375 67.558594 198.585938 68.140625 198.703125 C 68.722656 198.820312 69.3125 198.90625 69.902344 198.96875 C 70.496094 199.027344 71.085938 199.058594 71.683594 199.058594 C 72.277344 199.0625 72.871094 199.035156 73.460938 198.980469 C 74.054688 198.921875 74.640625 198.835938 75.226562 198.722656 C 75.808594 198.609375 76.386719 198.46875 76.957031 198.296875 C 77.527344 198.125 78.085938 197.929688 78.636719 197.703125 C 79.1875 197.476562 79.726562 197.226562 80.25 196.949219 C 80.777344 196.671875 81.289062 196.367188 81.785156 196.039062 C 82.28125 195.710938 82.761719 195.359375 83.222656 194.984375 C 83.683594 194.609375 84.128906 194.214844 84.550781 193.796875 C 141.414062 136.894531 233.9375 136.894531 290.792969 193.796875 C 291.214844 194.21875 291.65625 194.621094 292.117188 195 C 292.578125 195.378906 293.058594 195.734375 293.554688 196.066406 C 294.050781 196.398438 294.5625 196.703125 295.089844 196.988281 C 295.613281 197.269531 296.152344 197.523438 296.707031 197.753906 C 297.257812 197.980469 297.820312 198.183594 298.390625 198.355469 C 298.960938 198.53125 299.539062 198.675781 300.125 198.792969 C 300.710938 198.90625 301.300781 198.996094 301.894531 199.054688 C 302.488281 199.113281 303.085938 199.140625 303.683594 199.140625 C 304.28125 199.140625 304.875 199.113281 305.46875 199.054688 C 306.0625 198.996094 306.652344 198.90625 307.238281 198.792969 C 307.824219 198.675781 308.402344 198.53125 308.976562 198.355469 C 309.546875 198.183594 310.109375 197.980469 310.660156 197.753906 C 311.210938 197.523438 311.75 197.269531 312.277344 196.988281 C 312.804688 196.703125 313.316406 196.398438 313.8125 196.066406 C 314.308594 195.734375 314.785156 195.378906 315.25 195 C 315.710938 194.621094 316.152344 194.21875 316.574219 193.796875 Z M 265.007812 245.394531 C 265.433594 244.972656 265.832031 244.527344 266.210938 244.066406 C 266.589844 243.605469 266.945312 243.125 267.277344 242.628906 C 267.609375 242.132812 267.914062 241.621094 268.195312 241.09375 C 268.476562 240.566406 268.734375 240.027344 268.960938 239.476562 C 269.191406 238.921875 269.390625 238.359375 269.5625 237.789062 C 269.738281 237.21875 269.882812 236.640625 270 236.054688 C 270.117188 235.46875 270.203125 234.875 270.261719 234.28125 C 270.320312 233.6875 270.347656 233.089844 270.347656 232.492188 C 270.347656 231.898438 270.320312 231.300781 270.261719 230.707031 C 270.203125 230.113281 270.117188 229.519531 270 228.933594 C 269.882812 228.347656 269.738281 227.769531 269.5625 227.199219 C 269.390625 226.625 269.191406 226.066406 268.960938 225.511719 C 268.734375 224.960938 268.476562 224.421875 268.195312 223.894531 C 267.914062 223.367188 267.609375 222.855469 267.277344 222.359375 C 266.945312 221.863281 266.589844 221.382812 266.210938 220.921875 C 265.832031 220.460938 265.433594 220.015625 265.007812 219.59375 C 222.363281 176.921875 152.976562 176.921875 110.332031 219.59375 C 109.921875 220.019531 109.535156 220.464844 109.167969 220.925781 C 108.800781 221.390625 108.457031 221.867188 108.136719 222.363281 C 107.816406 222.859375 107.523438 223.371094 107.25 223.894531 C 106.980469 224.421875 106.734375 224.957031 106.515625 225.507812 C 106.296875 226.054688 106.105469 226.613281 105.941406 227.179688 C 105.777344 227.746094 105.640625 228.320312 105.535156 228.902344 C 105.425781 229.480469 105.34375 230.066406 105.292969 230.65625 C 105.242188 231.242188 105.21875 231.832031 105.222656 232.421875 C 105.226562 233.015625 105.261719 233.601562 105.324219 234.191406 C 105.386719 234.777344 105.476562 235.359375 105.597656 235.9375 C 105.714844 236.515625 105.863281 237.089844 106.035156 237.652344 C 106.210938 238.214844 106.410156 238.769531 106.640625 239.316406 C 106.867188 239.859375 107.121094 240.394531 107.402344 240.914062 C 107.683594 241.433594 107.988281 241.9375 108.316406 242.429688 C 108.644531 242.917969 108.996094 243.390625 109.371094 243.847656 C 109.746094 244.304688 110.140625 244.742188 110.558594 245.160156 C 110.976562 245.578125 111.414062 245.972656 111.867188 246.347656 C 112.324219 246.722656 112.796875 247.074219 113.289062 247.40625 C 113.777344 247.734375 114.28125 248.039062 114.800781 248.320312 C 115.320312 248.597656 115.851562 248.855469 116.398438 249.082031 C 116.941406 249.3125 117.496094 249.511719 118.058594 249.6875 C 118.625 249.863281 119.195312 250.007812 119.773438 250.128906 C 120.351562 250.246094 120.933594 250.339844 121.519531 250.402344 C 122.105469 250.464844 122.695312 250.496094 123.285156 250.503906 C 123.875 250.507812 124.464844 250.484375 125.050781 250.433594 C 125.640625 250.382812 126.222656 250.300781 126.804688 250.191406 C 127.382812 250.085938 127.957031 249.949219 128.523438 249.785156 C 129.09375 249.617188 129.648438 249.425781 130.199219 249.210938 C 130.746094 248.992188 131.28125 248.746094 131.808594 248.476562 C 132.332031 248.203125 132.84375 247.910156 133.339844 247.589844 C 133.832031 247.269531 134.3125 246.925781 134.777344 246.558594 C 135.238281 246.191406 135.683594 245.804688 136.105469 245.394531 C 136.953125 244.550781 137.816406 243.726562 138.699219 242.925781 C 139.585938 242.128906 140.488281 241.347656 141.414062 240.59375 C 142.335938 239.835938 143.277344 239.101562 144.234375 238.390625 C 145.195312 237.683594 146.171875 236.996094 147.164062 236.332031 C 148.15625 235.671875 149.164062 235.035156 150.1875 234.421875 C 151.210938 233.808594 152.25 233.21875 153.300781 232.660156 C 154.355469 232.097656 155.421875 231.5625 156.5 231.050781 C 157.578125 230.542969 158.667969 230.058594 159.773438 229.601562 C 160.875 229.144531 161.988281 228.71875 163.109375 228.316406 C 164.234375 227.914062 165.367188 227.539062 166.507812 227.195312 C 167.652344 226.847656 168.800781 226.53125 169.957031 226.242188 C 171.113281 225.953125 172.277344 225.691406 173.449219 225.457031 C 174.617188 225.226562 175.792969 225.023438 176.972656 224.847656 C 178.15625 224.671875 179.339844 224.527344 180.527344 224.410156 C 181.714844 224.292969 182.902344 224.203125 184.09375 224.144531 C 185.285156 224.085938 186.476562 224.058594 187.671875 224.058594 C 188.863281 224.058594 190.054688 224.085938 191.246094 224.144531 C 192.4375 224.203125 193.628906 224.292969 194.816406 224.410156 C 196.003906 224.527344 197.1875 224.671875 198.367188 224.847656 C 199.546875 225.023438 200.722656 225.226562 201.894531 225.457031 C 203.0625 225.691406 204.226562 225.953125 205.382812 226.242188 C 206.542969 226.53125 207.691406 226.847656 208.832031 227.195312 C 209.976562 227.539062 211.109375 227.914062 212.230469 228.316406 C 213.355469 228.71875 214.46875 229.144531 215.570312 229.601562 C 216.671875 230.058594 217.761719 230.542969 218.84375 231.050781 C 219.921875 231.5625 220.988281 232.097656 222.039062 232.660156 C 223.089844 233.21875 224.128906 233.808594 225.152344 234.421875 C 226.175781 235.035156 227.1875 235.671875 228.179688 236.332031 C 229.171875 236.996094 230.148438 237.683594 231.105469 238.390625 C 232.066406 239.101562 233.003906 239.835938 233.929688 240.59375 C 234.851562 241.347656 235.753906 242.128906 236.640625 242.925781 C 237.527344 243.726562 238.390625 244.550781 239.234375 245.394531 C 239.65625 245.816406 240.097656 246.214844 240.558594 246.59375 C 241.023438 246.972656 241.5 247.328125 241.996094 247.660156 C 242.492188 247.992188 243.003906 248.296875 243.53125 248.582031 C 244.058594 248.863281 244.597656 249.117188 245.148438 249.34375 C 245.699219 249.574219 246.261719 249.773438 246.832031 249.949219 C 247.402344 250.121094 247.980469 250.265625 248.566406 250.382812 C 249.152344 250.5 249.742188 250.585938 250.335938 250.644531 C 250.929688 250.703125 251.527344 250.734375 252.121094 250.734375 C 252.71875 250.734375 253.316406 250.703125 253.910156 250.644531 C 254.503906 250.585938 255.09375 250.5 255.675781 250.382812 C 256.261719 250.265625 256.839844 250.121094 257.414062 249.949219 C 257.984375 249.773438 258.546875 249.574219 259.097656 249.34375 C 259.648438 249.117188 260.1875 248.863281 260.714844 248.582031 C 261.238281 248.296875 261.75 247.992188 262.246094 247.660156 C 262.742188 247.328125 263.222656 246.972656 263.683594 246.59375 C 264.144531 246.214844 264.585938 245.816406 265.007812 245.394531 Z M 213.429688 322.78125 C 213.925781 322.289062 214.402344 321.78125 214.867188 321.261719 C 215.332031 320.742188 215.78125 320.210938 216.214844 319.664062 C 216.648438 319.117188 217.066406 318.558594 217.46875 317.988281 C 217.871094 317.417969 218.253906 316.839844 218.625 316.246094 C 218.992188 315.65625 219.34375 315.050781 219.679688 314.441406 C 220.011719 313.828125 220.328125 313.207031 220.628906 312.578125 C 220.925781 311.945312 221.207031 311.308594 221.46875 310.660156 C 221.730469 310.015625 221.972656 309.363281 222.199219 308.703125 C 222.421875 308.042969 222.628906 307.375 222.816406 306.703125 C 223.003906 306.03125 223.167969 305.355469 223.316406 304.671875 C 223.464844 303.992188 223.59375 303.304688 223.703125 302.617188 C 223.808594 301.925781 223.898438 301.234375 223.96875 300.542969 C 224.035156 299.847656 224.085938 299.152344 224.113281 298.457031 C 224.144531 297.757812 224.152344 297.0625 224.140625 296.363281 C 224.132812 295.667969 224.101562 294.96875 224.050781 294.273438 C 224 293.578125 223.929688 292.886719 223.839844 292.195312 C 223.746094 291.5 223.636719 290.8125 223.507812 290.128906 C 223.378906 289.441406 223.226562 288.761719 223.058594 288.085938 C 222.890625 287.40625 222.703125 286.738281 222.496094 286.070312 C 222.289062 285.40625 222.0625 284.746094 221.816406 284.09375 C 221.570312 283.4375 221.308594 282.792969 221.027344 282.15625 C 220.746094 281.519531 220.445312 280.890625 220.125 280.269531 C 219.808594 279.648438 219.472656 279.035156 219.121094 278.433594 C 218.765625 277.832031 218.398438 277.242188 218.011719 276.664062 C 217.621094 276.082031 217.21875 275.511719 216.800781 274.957031 C 216.382812 274.398438 215.945312 273.855469 215.496094 273.324219 C 215.042969 272.789062 214.578125 272.269531 214.097656 271.765625 C 213.617188 271.261719 213.125 270.769531 212.617188 270.292969 C 212.109375 269.816406 211.585938 269.351562 211.050781 268.90625 C 210.515625 268.457031 209.96875 268.027344 209.410156 267.609375 C 208.847656 267.195312 208.277344 266.792969 207.695312 266.410156 C 207.113281 266.027344 206.519531 265.664062 205.917969 265.3125 C 205.3125 264.964844 204.699219 264.632812 204.078125 264.320312 C 203.457031 264.003906 202.824219 263.707031 202.183594 263.429688 C 201.546875 263.152344 200.898438 262.894531 200.246094 262.652344 C 199.589844 262.414062 198.929688 262.191406 198.261719 261.988281 C 197.597656 261.785156 196.925781 261.601562 196.246094 261.4375 C 195.570312 261.273438 194.886719 261.128906 194.203125 261.003906 C 193.515625 260.878906 192.828125 260.773438 192.136719 260.6875 C 191.445312 260.601562 190.75 260.535156 190.054688 260.488281 C 189.359375 260.441406 188.664062 260.417969 187.964844 260.410156 C 187.269531 260.402344 186.570312 260.417969 185.875 260.453125 C 185.179688 260.484375 184.484375 260.539062 183.792969 260.613281 C 183.097656 260.6875 182.40625 260.78125 181.71875 260.894531 C 181.03125 261.007812 180.347656 261.140625 179.667969 261.292969 C 178.988281 261.445312 178.3125 261.617188 177.640625 261.808594 C 176.972656 262 176.308594 262.207031 175.648438 262.4375 C 174.992188 262.667969 174.339844 262.914062 173.695312 263.183594 C 173.050781 263.449219 172.414062 263.734375 171.789062 264.035156 C 171.160156 264.339844 170.539062 264.660156 169.929688 265 C 169.320312 265.335938 168.722656 265.695312 168.132812 266.066406 C 167.542969 266.4375 166.964844 266.828125 166.398438 267.234375 C 165.832031 267.640625 165.277344 268.0625 164.734375 268.5 C 164.191406 268.9375 163.664062 269.390625 163.148438 269.859375 C 162.628906 270.328125 162.128906 270.8125 161.636719 271.308594 C 161.148438 271.804688 160.675781 272.316406 160.214844 272.839844 C 159.753906 273.363281 159.3125 273.902344 158.882812 274.449219 C 158.453125 275 158.039062 275.5625 157.640625 276.136719 C 157.246094 276.707031 156.867188 277.292969 156.503906 277.886719 C 156.136719 278.484375 155.792969 279.089844 155.464844 279.703125 C 155.136719 280.320312 154.824219 280.941406 154.53125 281.574219 C 154.238281 282.207031 153.964844 282.847656 153.707031 283.496094 C 153.449219 284.144531 153.210938 284.800781 152.992188 285.464844 C 152.773438 286.125 152.574219 286.792969 152.394531 287.46875 C 152.214844 288.140625 152.050781 288.820312 151.910156 289.503906 C 151.769531 290.1875 151.648438 290.871094 151.542969 291.5625 C 151.441406 292.253906 151.359375 292.945312 151.296875 293.640625 C 151.234375 294.332031 151.191406 295.03125 151.167969 295.726562 C 151.144531 296.425781 151.140625 297.121094 151.160156 297.820312 C 151.175781 298.515625 151.210938 299.210938 151.269531 299.90625 C 151.324219 300.601562 151.402344 301.296875 151.5 301.988281 C 151.597656 302.675781 151.710938 303.363281 151.847656 304.046875 C 151.984375 304.734375 152.140625 305.414062 152.3125 306.085938 C 152.488281 306.761719 152.683594 307.433594 152.894531 308.097656 C 153.109375 308.761719 153.339844 309.417969 153.589844 310.070312 C 153.84375 310.71875 154.109375 311.363281 154.398438 312 C 154.6875 312.632812 154.992188 313.261719 155.316406 313.878906 C 155.640625 314.496094 155.980469 315.105469 156.339844 315.703125 C 156.695312 316.300781 157.070312 316.890625 157.464844 317.464844 C 157.855469 318.042969 158.261719 318.609375 158.6875 319.160156 C 159.113281 319.714844 159.550781 320.253906 160.007812 320.785156 C 160.460938 321.3125 160.933594 321.828125 161.417969 322.328125 C 161.902344 322.828125 162.398438 323.316406 162.914062 323.789062 C 163.425781 324.261719 163.949219 324.71875 164.488281 325.160156 C 165.027344 325.605469 165.578125 326.03125 166.144531 326.441406 C 166.707031 326.851562 167.28125 327.246094 167.867188 327.625 C 168.453125 328.003906 169.046875 328.363281 169.65625 328.707031 C 170.261719 329.050781 170.878906 329.378906 171.503906 329.6875 C 172.128906 329.996094 172.761719 330.285156 173.402344 330.558594 C 174.042969 330.828125 174.695312 331.082031 175.351562 331.320312 C 176.007812 331.554688 176.667969 331.769531 177.335938 331.964844 C 178.007812 332.164062 178.679688 332.339844 179.359375 332.5 C 180.039062 332.65625 180.722656 332.796875 181.40625 332.917969 C 182.09375 333.035156 182.785156 333.136719 183.476562 333.214844 C 184.167969 333.292969 184.863281 333.355469 185.558594 333.394531 C 186.253906 333.433594 186.953125 333.453125 187.648438 333.453125 C 190.042969 333.453125 192.414062 333.21875 194.761719 332.753906 C 197.109375 332.289062 199.386719 331.597656 201.597656 330.679688 C 203.8125 329.765625 205.914062 328.644531 207.902344 327.3125 C 209.894531 325.984375 211.738281 324.472656 213.429688 322.78125 Z M 213.429688 322.78125 " fill-opacity="1" fill-rule="nonzero"/></g></svg>