<?xml version="1.0" encoding="UTF-8"?>
<svg version="1.1" xmlns="http://www.w3.org/2000/svg" width="360" height="360">
<path d="M0 0 C3.56850669 2.44619072 6.78701476 5.11014231 10 8 C10.60714844 8.46664062 11.21429688 8.93328125 11.83984375 9.4140625 C26.77307839 20.99493834 35.806054 41.68503483 38.75 59.9375 C38.86480782 61.28936204 38.94282504 62.64447692 39 64 C39.07734375 65.61068359 39.07734375 65.61068359 39.15625 67.25390625 C39.50911973 81.35399256 37.26183067 94.24507788 31 107 C30.319375 108.40185547 30.319375 108.40185547 29.625 109.83203125 C18.88332329 130.70240855 0.24112409 144.78563695 -21.890625 151.93359375 C-77.73830726 167.53809321 -157.18056902 113.60973086 -206.30859375 89.75 C-212.22435931 86.87909916 -218.17544599 84.0853118 -224.15820312 81.35668945 C-226.84362199 80.11422914 -228.88897375 79.11102625 -231 77 C-232.47601718 70.07407323 -232.47601718 70.07407323 -230.93725586 66.60205078 C-228.44892503 63.25981638 -225.55311163 61.88906487 -221.859375 60.19921875 C-221.15133728 59.8607341 -220.44329956 59.52224945 -219.71380615 59.17350769 C-218.22351708 58.46139927 -216.73055223 57.75486654 -215.23510742 57.0536499 C-212.41303989 55.72330168 -209.61513509 54.34669589 -206.8168335 52.96723938 C-203.30102039 51.23572209 -199.77524145 49.52471939 -196.25 47.8125 C-195.11914978 47.26316299 -195.11914978 47.26316299 -193.9654541 46.70272827 C-179.38909063 39.62838773 -164.7365287 32.73530772 -150 26 C-148.72393641 25.41541244 -147.44789531 24.83077577 -146.171875 24.24609375 C-130.06104789 16.87048461 -113.89402676 9.69177321 -97.47851562 3.01367188 C-95.27575028 2.1127773 -93.08185905 1.194114 -90.890625 0.265625 C-80.82211887 -3.92598485 -70.49945203 -7.07661871 -60 -10 C-59.31397705 -10.19867676 -58.6279541 -10.39735352 -57.92114258 -10.60205078 C-38.33750374 -15.97512712 -17.07138508 -9.97153984 0 0 Z M-71 51 C-77.16389369 59.95897675 -77.77497811 68.3274443 -77 79 C-74.91615026 87.68689167 -68.28538081 95.10562591 -60.94140625 99.96875 C-52.16703313 104.62958401 -43.50630082 105.19180853 -34.0625 102.5625 C-25.43231635 99.42525212 -19.15225031 93.84003131 -14.9375 85.6875 C-11.42438286 77.92363613 -10.66017584 69.62491145 -13.125 61.375 C-16.90720621 51.54126385 -22.90605113 45.05426385 -32.265625 40.36328125 C-46.63965279 35.11585897 -61.11135412 39.9020917 -71 51 Z " fill="#030303" transform="translate(276,109)"/>
<path d="M0 0 C1.32 0 2.64 0 4 0 C4.66 2.31 5.32 4.62 6 7 C5.01 7.495 5.01 7.495 4 8 C2.68 5.36 1.36 2.72 0 0 Z " fill="#3B3B3B" transform="translate(257,160)"/>
</svg>
